<svg xmlns="http://www.w3.org/2000/svg" width="272" height="92" viewBox="0 0 272 92" fill="none">
  <path d="M115.75 46.75C115.75 43.9167 116.083 41.3333 116.75 39C117.417 36.6667 118.333 34.6667 119.5 33C120.667 31.3333 122.083 30.0833 123.75 29.25C125.417 28.4167 127.25 28 129.25 28C132.417 28 134.917 29.0833 136.75 31.25C138.583 33.4167 139.5 36.3333 139.5 40V41.75H121.25C121.25 43.0833 121.417 44.25 121.75 45.25C122.083 46.25 122.583 47.0833 123.25 47.75C123.917 48.4167 124.667 48.9167 125.5 49.25C126.333 49.5833 127.25 49.75 128.25 49.75C129.583 49.75 130.917 49.5 132.25 49C133.583 48.5 134.583 47.9167 135.25 47.25L138.25 51.75C137.083 52.9167 135.5 53.9167 133.5 54.75C131.5 55.5833 129.333 56 127 56C124.833 56 122.917 55.6667 121.25 55C119.583 54.3333 118.167 53.3333 117 52C115.833 50.6667 115 49.0833 114.5 47.25C114 45.4167 113.75 43.4167 113.75 41.25L115.75 46.75ZM129.25 34C128.417 34 127.667 34.1667 127 34.5C126.333 34.8333 125.75 35.25 125.25 35.75C124.75 36.25 124.333 36.9167 124 37.75C123.667 38.5833 123.417 39.5 123.25 40.5H134.5C134.5 38.5 134.083 37 133.25 36C132.417 34.6667 131.083 34 129.25 34Z" fill="#4285F4"/>
  <path d="M154.75 55.75C153.75 55.9167 152.75 56 151.75 56C150.75 56 149.833 55.9167 149 55.75C148.167 55.5833 147.417 55.25 146.75 54.75C146.083 54.25 145.583 53.5833 145.25 52.75C144.917 51.9167 144.75 50.8333 144.75 49.5V35H141.75V29H144.75V21H152.75V29H157.75V35H152.75V46.75C152.75 47.75 152.917 48.4167 153.25 48.75C153.583 49.0833 154.167 49.25 155 49.25C155.333 49.25 155.75 49.1667 156.25 49C156.75 48.8333 157.167 48.6667 157.5 48.5L158.75 54.75C158.083 55.0833 157.25 55.4167 156.25 55.75C155.25 56.0833 154.083 56.1667 152.75 56L154.75 55.75Z" fill="#DB4437"/>
  <path d="M160 42.5C160 40.5 160.333 38.6667 161 37C161.667 35.3333 162.583 33.9167 163.75 32.75C164.917 31.5833 166.333 30.6667 168 30C169.667 29.3333 171.417 29 173.25 29C175.083 29 176.833 29.3333 178.5 30C180.167 30.6667 181.583 31.5833 182.75 32.75C183.917 33.9167 184.833 35.3333 185.5 37C186.167 38.6667 186.5 40.5 186.5 42.5C186.5 44.5 186.167 46.3333 185.5 48C184.833 49.6667 183.917 51.0833 182.75 52.25C181.583 53.4167 180.167 54.3333 178.5 55C176.833 55.6667 175.083 56 173.25 56C171.417 56 169.667 55.6667 168 55C166.333 54.3333 164.917 53.4167 163.75 52.25C162.583 51.0833 161.667 49.6667 161 48C160.333 46.3333 160 44.5 160 42.5ZM168 42.5C168 43.5 168.167 44.4167 168.5 45.25C168.833 46.0833 169.25 46.8333 169.75 47.5C170.25 48.1667 170.833 48.6667 171.5 49C172.167 49.3333 172.833 49.5 173.5 49.5C174.167 49.5 174.833 49.3333 175.5 49C176.167 48.6667 176.75 48.1667 177.25 47.5C177.75 46.8333 178.167 46.0833 178.5 45.25C178.833 44.4167 179 43.5 179 42.5C179 41.5 178.833 40.5833 178.5 39.75C178.167 38.9167 177.75 38.1667 177.25 37.5C176.75 36.8333 176.167 36.3333 175.5 36C174.833 35.6667 174.167 35.5 173.5 35.5C172.833 35.5 172.167 35.6667 171.5 36C170.833 36.3333 170.25 36.8333 169.75 37.5C169.25 38.1667 168.833 38.9167 168.5 39.75C168.167 40.5833 168 41.5 168 42.5Z" fill="#F4B400"/>
  <path d="M188.25 29.75H195.5V33C196 32 196.833 31 198 30C199.167 29 200.75 28.5 202.75 28.5C204.583 28.5 206.167 28.8333 207.5 29.5C208.833 30.1667 209.917 31 210.75 32C211.583 33 212.167 34.1667 212.5 35.5C212.833 36.8333 213 38.1667 213 39.5V55.5H204.75V41.75C204.75 40.4167 204.417 39.3333 203.75 38.5C203.083 37.6667 202 37.25 200.5 37.25C199.667 37.25 198.917 37.4167 198.25 37.75C197.583 38.0833 197 38.5 196.5 39C196 39.5 195.667 40.0833 195.5 40.75C195.333 41.4167 195.25 42.0833 195.25 42.75V55.5H187V29.75H188.25Z" fill="#4285F4"/>
  <path d="M218.25 19.5H226.5V33C227 32 227.833 31 229 30C230.167 29 231.75 28.5 233.75 28.5C235.583 28.5 237.167 28.8333 238.5 29.5C239.833 30.1667 240.917 31 241.75 32C242.583 33 243.167 34.1667 243.5 35.5C243.833 36.8333 244 38.1667 244 39.5V55.5H235.75V41.75C235.75 40.4167 235.417 39.3333 234.75 38.5C234.083 37.6667 233 37.25 231.5 37.25C230.667 37.25 229.917 37.4167 229.25 37.75C228.583 38.0833 228 38.5 227.5 39C227 39.5 226.667 40.0833 226.5 40.75C226.333 41.4167 226.25 42.0833 226.25 42.75V55.5H218V19.5H218.25Z" fill="#0F9D58"/>
</svg>
