<svg xmlns="http://www.w3.org/2000/svg" width="200" height="60" viewBox="0 0 200 60" fill="none">
  <path d="M30.5 10H38.5V50H30.5V33H21.5V50H13.5V10H21.5V26H30.5V10Z" fill="#007A33"/>
  <path d="M49.5 10H57.5V43H72.5V50H49.5V10Z" fill="#007A33"/>
  <path d="M83.5 10H107.5V17H91.5V26H105.5V33H91.5V43H107.5V50H83.5V10Z" fill="#007A33"/>
  <path d="M118.5 10H126.5V43H141.5V50H118.5V10Z" fill="#007A33"/>
  <path d="M152.5 10H175.5C177.167 10 178.5 10.5 179.5 11.5C180.5 12.5 181 13.8333 181 15.5V22.5C181 24.1667 180.5 25.5 179.5 26.5C178.5 27.5 177.167 28 175.5 28H160.5V50H152.5V10ZM160.5 21H172.5V17H160.5V21Z" fill="#007A33"/>
  <path d="M187.5 10H195.5V50H187.5V10Z" fill="#007A33"/>
</svg>
