<svg xmlns="http://www.w3.org/2000/svg" width="200" height="60" viewBox="0 0 200 60" fill="none">
  <path d="M100 15C86.2 15 75 26.2 75 40C75 53.8 86.2 65 100 65C113.8 65 125 53.8 125 40C125 26.2 113.8 15 100 15ZM113.1 49.7C111.9 51.7 109.1 52.2 107.1 51C101.7 47.7 95.1 46.8 88.1 48.3C85.8 48.7 83.6 47.3 83.2 45C82.8 42.7 84.2 40.5 86.5 40.1C94.9 38.4 102.9 39.4 109.7 43.4C111.6 44.6 112.2 47.5 111.1 49.7H113.1ZM116.9 42.4C115.4 44.9 111.9 45.5 109.4 44C103 40.2 94.1 38.8 85.5 40.9C82.6 41.5 79.8 39.7 79.2 36.8C78.6 33.9 80.4 31.1 83.3 30.5C93.6 28 104.2 29.6 111.9 34.2C114.4 35.7 115 39.2 113.5 41.7L116.9 42.4ZM117.3 34.7C109.7 30.3 98 29.4 86.9 31.8C83.4 32.5 80 30.3 79.3 26.8C78.6 23.3 80.8 19.9 84.3 19.2C97.2 16.4 110.7 17.5 119.7 22.7C122.8 24.5 123.6 28.6 121.8 31.7C120 34.9 115.9 35.7 112.8 33.9L117.3 34.7Z" fill="#1DB954"/>
</svg>
